<svg xmlns="http://www.w3.org/2000/svg" viewBox="0 0 32 32" width="32" height="32">
  <defs>
    <linearGradient id="bowTieGradient" x1="0%" y1="0%" x2="100%" y2="100%">
      <stop offset="0%" style="stop-color:#2c3e50;stop-opacity:1" />
      <stop offset="100%" style="stop-color:#34495e;stop-opacity:1" />
    </linearGradient>
  </defs>

  <!-- Background circle -->
  <circle cx="16" cy="16" r="15" fill="#ffffff" stroke="#e8e8e8" stroke-width="1"/>

  <!-- Bow tie shape -->
  <!-- Left wing -->
  <path d="M 6 12 L 14 16 L 6 20 L 8 22 L 14 18 L 14 14 L 8 10 Z" fill="url(#bowTieGradient)"/>

  <!-- Right wing -->
  <path d="M 26 12 L 18 16 L 26 20 L 24 22 L 18 18 L 18 14 L 24 10 Z" fill="url(#bowTieGradient)"/>

  <!-- Center knot -->
  <rect x="14" y="14" width="4" height="4" rx="0.5" fill="#1a252f"/>

  <!-- Subtle highlights -->
  <path d="M 7 13 L 13 16 L 7 19 L 8.5 20.5 L 13 17 L 13 15 L 8.5 11.5 Z" fill="#3498db" opacity="0.3"/>
  <path d="M 25 13 L 19 16 L 25 19 L 23.5 20.5 L 19 17 L 19 15 L 23.5 11.5 Z" fill="#3498db" opacity="0.3"/>
</svg>